<svg width="170" height="14" viewBox="0 0 170 14" fill="none" xmlns="http://www.w3.org/2000/svg">
<g clip-path="url(#clip0_147_4927)">
<path d="M113.18 12.9185H112.162C111.867 12.9185 111.636 12.6908 111.636 12.4042V8.22758H107.502V12.4042C107.502 12.6908 107.272 12.9185 106.977 12.9185H105.959C105.665 12.9185 105.433 12.6908 105.433 12.4042V2.95742C105.433 2.68441 105.665 2.44458 105.944 2.44458H106.993C107.272 2.44458 107.502 2.68441 107.502 2.95742V6.75394H111.636V2.95742C111.636 2.68441 111.867 2.44458 112.145 2.44458H113.195C113.473 2.44458 113.706 2.68441 113.706 2.95742V12.4042C113.706 12.6908 113.473 12.9185 113.18 12.9185Z" fill="white"/>
<path d="M4.45945 13.0996C1.17386 13.0996 0 11.2896 0 9.13717V1.6573C0 1.35262 0.265315 1.07056 0.583077 1.07056H1.51168C1.82944 1.07056 2.09475 1.35262 2.09475 1.6573V9.34985C2.09475 11.2971 3.19611 11.8205 4.50418 11.8205C6.23643 11.8205 6.91358 10.9563 6.91358 9.34985V1.6573C6.91358 1.35262 7.17891 1.07056 7.49666 1.07056H8.3142C8.63355 1.07056 8.89727 1.35262 8.89727 1.6573V9.13717C8.89727 11.626 7.34862 13.0996 4.45945 13.0996Z" fill="white"/>
<path d="M50.081 3.65741H48.2501V11.7029H50.081C52.4982 11.7029 53.0859 9.90951 53.0859 7.74052C53.0859 5.5715 52.5182 3.65741 50.081 3.65741ZM50.5746 12.9187H46.7091C46.4314 12.9187 46.1985 12.6834 46.1985 12.4133V2.96508C46.1985 2.69358 46.4314 2.4447 46.7091 2.4447H50.5746C53.1167 2.4447 55.1359 3.77808 55.1359 7.74052C55.1359 11.7029 52.9625 12.9172 50.5746 12.9172" fill="white"/>
<path d="M66.1545 12.9201H65.2383C64.908 12.9201 64.6473 12.6683 64.6473 12.3455V7.55949H59.7344V12.3455C59.7344 12.6667 59.4737 12.9201 59.1417 12.9201H58.2255C57.8969 12.9201 57.6379 12.6683 57.6379 12.3455V1.72674C57.6379 1.42055 57.8958 1.14905 58.2101 1.14905H59.1622C59.4737 1.14905 59.7344 1.42055 59.7344 1.72674V6.05119H64.6473V1.72674C64.6473 1.42055 64.908 1.14905 65.2212 1.14905H66.171C66.4831 1.14905 66.7438 1.42055 66.7438 1.72674V12.3455C66.7438 12.6667 66.4831 12.9201 66.1545 12.9201Z" fill="white"/>
<path d="M94.961 12.9202H89.7909C89.4976 12.9202 89.2649 12.694 89.2649 12.4058V2.95607C89.2649 2.68457 89.4976 2.44324 89.7755 2.44324H90.8565C91.1343 2.44324 91.3654 2.68457 91.3654 2.95607V11.4405H94.961C95.2389 11.4405 95.4705 11.6834 95.4705 11.9549V12.4194C95.4705 12.6924 95.2389 12.9187 94.961 12.9187" fill="white"/>
<path d="M25.0352 12.92H23.9878C23.6948 12.92 23.4634 12.6847 23.4634 12.3981V2.96647C23.4634 2.69496 23.6948 2.44458 23.9739 2.44458H25.0491C25.3283 2.44458 25.5581 2.69496 25.5581 2.96647V12.3981C25.5581 12.6847 25.3283 12.92 25.0337 12.92" fill="white"/>
<path d="M34.9457 3.92288H32.51V12.3983C32.51 12.6849 32.2787 12.9201 31.9856 12.9201H30.9382C30.6452 12.9201 30.4138 12.6849 30.4138 12.3983V3.92288H27.9612C27.6835 3.92288 27.4521 3.69813 27.4521 3.42663V2.96056C27.4521 2.68905 27.6835 2.4447 27.9612 2.4447H34.9442C35.2218 2.4447 35.4517 2.69056 35.4517 2.96056V3.42663C35.4517 3.69813 35.2218 3.92288 34.9442 3.92288" fill="white"/>
<path d="M103.016 3.92288H100.414V12.3983C100.414 12.6849 100.184 12.9201 99.8905 12.9201H98.842C98.5516 12.9201 98.3189 12.6849 98.3189 12.3983V3.92288H95.6999C95.4203 3.92288 95.1904 3.69813 95.1904 3.42663V2.96056C95.1904 2.68905 95.4203 2.4447 95.6999 2.4447H103.016C103.293 2.4447 103.523 2.69056 103.523 2.96056V3.42663C103.523 3.69813 103.293 3.92288 103.016 3.92288Z" fill="white"/>
<path d="M43.8289 12.9201H37.7869C37.5092 12.9201 37.2778 12.7452 37.2778 12.4737V2.96056C37.2778 2.68905 37.5092 2.4447 37.7869 2.4447H43.6099C43.8891 2.4447 44.119 2.69056 44.119 2.96056V3.37686C44.119 3.64836 43.8891 3.87311 43.6099 3.87311H39.3741V6.77665H43.1811C43.4588 6.77665 43.6901 7.01801 43.6901 7.2895V7.7058C43.6901 7.97729 43.4588 8.20359 43.1811 8.20359H39.3741V11.4857L43.8289 11.4917C44.1066 11.4917 44.3364 11.7316 44.3364 12.0031V12.4752C44.3364 12.7467 44.1066 12.9216 43.8289 12.9216" fill="white"/>
<path d="M76.0945 12.92H70.0526C69.7748 12.92 69.5432 12.745 69.5432 12.4736V2.96044C69.5432 2.68893 69.7748 2.44458 70.0526 2.44458H75.8754C76.1532 2.44458 76.3843 2.69044 76.3843 2.96044V3.37673C76.3843 3.64824 76.1532 3.87298 75.8754 3.87298H71.6397V6.77656H75.4453C75.7243 6.77656 75.9542 7.01786 75.9542 7.28941V7.70571C75.9542 7.9772 75.7243 8.20344 75.4453 8.20344H71.6397V11.4856L76.0945 11.4916C76.3723 11.4916 76.6022 11.7314 76.6022 12.003V12.4751C76.6022 12.7466 76.3723 12.9216 76.0945 12.9216" fill="white"/>
<path d="M19.732 12.9202H18.151C17.6604 12.9202 17.429 12.6985 17.3056 12.4285C16.5205 10.798 13.4802 4.12655 13.4802 4.12655V12.4134C13.4802 12.6849 13.2488 12.9202 12.9712 12.9202H12.26C11.9808 12.9202 11.751 12.6849 11.751 12.4134V2.94702C11.751 2.67553 11.9808 2.44324 12.26 2.44324H13.8072C14.2638 2.44324 14.5445 2.5986 14.7003 2.93345C15.5178 4.68313 18.5119 11.1871 18.5119 11.1871V2.94702C18.5119 2.67553 18.7433 2.44324 19.0209 2.44324H19.7336C20.0112 2.44324 20.2426 2.67553 20.2426 2.94702V12.4119C20.2426 12.6834 20.0112 12.9187 19.7336 12.9187" fill="white"/>
<path d="M81.0039 9.18549L82.6006 3.99528L84.1032 9.18549H81.0039ZM87.2636 12.255L84.1865 2.92737C84.0781 2.60911 83.8174 2.4447 83.4335 2.4447H82.0729C81.6782 2.4447 81.4591 2.61062 81.3496 2.92737L78.2816 12.3138C78.2491 12.4043 78.2166 12.4676 78.2166 12.5566C78.2166 12.7663 78.4037 12.9187 78.5868 12.9187H79.2811C79.6496 12.9187 79.9183 12.7512 80.0261 12.4345L80.6325 10.4751H84.5351L85.1672 12.4345C85.2567 12.7075 85.4621 12.9187 85.9327 12.9187H86.9396C87.1712 12.9187 87.3252 12.7663 87.3252 12.5401C87.3252 12.4345 87.2927 12.3606 87.2653 12.2534" fill="white"/>
<path d="M134.165 7.08305C135.499 7.08305 136.033 6.49175 136.033 5.36504C136.033 4.17194 135.416 3.61536 134.196 3.61536H132.419V12.3683C132.419 12.6398 132.19 12.8676 131.91 12.8676H130.813C130.537 12.8676 130.306 12.6398 130.306 12.3683V2.90493C130.306 2.63343 130.537 2.39209 130.813 2.39209H134.409C136.616 2.39209 137.99 3.37252 137.99 5.36504C137.99 6.93521 136.974 7.68942 135.799 7.99109L138.114 12.2325C138.162 12.323 138.207 12.415 138.207 12.5207C138.207 12.7001 138.085 12.8676 137.913 12.8676H136.57C136.414 12.8676 136.244 12.7454 136.169 12.5795L133.695 7.85384C133.631 7.73618 133.52 7.54763 133.52 7.36664C133.52 7.20821 133.601 7.08305 133.884 7.08305H134.162H134.165Z" fill="white"/>
<path d="M144.415 3.34834C142.195 3.34834 141.814 5.30014 141.814 7.63055C141.814 9.96094 142.221 11.9127 144.382 11.9127C146.544 11.9127 147.014 10.065 147.014 7.63055C147.014 5.19606 146.601 3.34834 144.415 3.34834ZM144.415 13.0878C142.348 13.0878 139.715 12.3924 139.715 7.63055C139.715 2.86869 142.329 2.17334 144.415 2.17334C146.501 2.17334 149.113 2.89735 149.113 7.63055C149.113 12.3637 146.556 13.0878 144.415 13.0878Z" fill="white"/>
<path d="M155.178 13.0878C152.308 13.0878 151.134 11.5025 151.134 9.58541V2.90342C151.134 2.63192 151.365 2.39209 151.643 2.39209H152.723C153.002 2.39209 153.233 2.63192 153.233 2.90342V9.70604C153.233 11.4406 154.086 11.9113 155.277 11.9113C156.846 11.9113 157.323 11.0078 157.323 9.70604V2.90342C157.323 2.63192 157.554 2.39209 157.831 2.39209H158.711C158.988 2.39209 159.222 2.63192 159.222 2.90342V9.58541C159.222 11.8042 157.799 13.0878 155.177 13.0878" fill="white"/>
<path d="M164.836 7.62898H165.367C166.451 7.62898 167.299 7.09048 167.299 5.66663C167.299 4.11002 166.477 3.60019 165.316 3.60019H163.656V12.3667C163.656 12.6382 163.454 12.8659 163.178 12.8659H162.112C161.834 12.8659 161.604 12.6382 161.604 12.3667V2.90334C161.604 2.63183 161.834 2.3905 162.112 2.3905H165.97C168.046 2.3905 169.258 3.62885 169.258 5.66511C169.258 7.50679 168.153 8.74517 165.967 8.74517C165.55 8.74517 165.14 8.70591 164.887 8.6652C164.444 8.59128 164.245 8.35754 164.245 8.11164C164.245 7.8658 164.443 7.62747 164.838 7.62747" fill="white"/>
<path d="M127.457 12.5266C126.892 12.7695 126.011 13.1269 124.16 13.1269C121.142 13.1269 118.436 11.8886 118.436 6.98345C118.436 3.13416 120.102 0.839966 124.16 0.839966C126.032 0.839966 127.066 1.32716 127.31 1.42822C127.682 1.58207 127.707 1.65598 127.707 1.82642C127.707 1.90787 127.66 2.15675 127.649 2.21859C127.59 2.51724 127.503 3.00595 127.455 3.26991C127.43 3.41471 127.409 3.61683 127.182 3.61683C126.996 3.61683 126.832 3.40566 126.732 3.30309C126.573 3.14321 125.675 2.23368 124.159 2.23368C121.28 2.23368 120.793 4.9306 120.793 6.98345C120.793 9.81464 121.734 11.7348 124.159 11.7348C125.086 11.7348 125.572 11.5884 125.723 11.5477V7.66525C125.723 7.42993 125.863 7.3545 126.11 7.3545H127.441C127.722 7.3545 127.819 7.46611 127.819 7.68333V11.9293C127.819 12.3321 127.794 12.3788 127.455 12.5251" fill="white"/>
</g>
<defs>
<clipPath id="clip0_147_4927">
<rect width="170" height="14" fill="white"/>
</clipPath>
</defs>
</svg>
