<svg width="170" height="14" viewBox="0 0 170 14" fill="none" xmlns="http://www.w3.org/2000/svg">
<g clip-path="url(#clip0_216_2947)">
<path d="M113.18 12.9188H112.162C111.867 12.9188 111.636 12.691 111.636 12.4044V8.22782H107.502V12.4044C107.502 12.691 107.272 12.9188 106.977 12.9188H105.959C105.665 12.9188 105.433 12.691 105.433 12.4044V2.95766C105.433 2.68465 105.665 2.44482 105.944 2.44482H106.993C107.272 2.44482 107.502 2.68465 107.502 2.95766V6.75418H111.636V2.95766C111.636 2.68465 111.867 2.44482 112.145 2.44482H113.195C113.473 2.44482 113.706 2.68465 113.706 2.95766V12.4044C113.706 12.691 113.473 12.9188 113.18 12.9188Z" fill="#0066F5"/>
<path d="M4.45945 13.0999C1.17386 13.0999 0 11.2898 0 9.13741V1.65755C0 1.35286 0.265315 1.0708 0.583077 1.0708H1.51168C1.82944 1.0708 2.09475 1.35286 2.09475 1.65755V9.3501C2.09475 11.2974 3.19611 11.8208 4.50418 11.8208C6.23643 11.8208 6.91358 10.9565 6.91358 9.3501V1.65755C6.91358 1.35286 7.17891 1.0708 7.49666 1.0708H8.3142C8.63355 1.0708 8.89727 1.35286 8.89727 1.65755V9.13741C8.89727 11.6262 7.34862 13.0999 4.45945 13.0999Z" fill="#0066F5"/>
<path d="M50.081 3.65753H48.2501V11.703H50.081C52.4982 11.703 53.0859 9.90964 53.0859 7.74064C53.0859 5.57162 52.5182 3.65753 50.081 3.65753ZM50.5746 12.9188H46.7091C46.4314 12.9188 46.1985 12.6835 46.1985 12.4135V2.9652C46.1985 2.6937 46.4314 2.44482 46.7091 2.44482H50.5746C53.1167 2.44482 55.1359 3.7782 55.1359 7.74064C55.1359 11.703 52.9625 12.9173 50.5746 12.9173" fill="#0066F5"/>
<path d="M66.1545 12.92H65.2383C64.908 12.92 64.6473 12.6681 64.6473 12.3454V7.55937H59.7344V12.3454C59.7344 12.6666 59.4737 12.92 59.1417 12.92H58.2255C57.8969 12.92 57.6379 12.6681 57.6379 12.3454V1.72662C57.6379 1.42043 57.8958 1.14893 58.2101 1.14893H59.1622C59.4737 1.14893 59.7344 1.42043 59.7344 1.72662V6.05107H64.6473V1.72662C64.6473 1.42043 64.908 1.14893 65.2212 1.14893H66.171C66.4831 1.14893 66.7438 1.42043 66.7438 1.72662V12.3454C66.7438 12.6666 66.4831 12.92 66.1545 12.92Z" fill="#0066F5"/>
<path d="M94.961 12.9203H89.7909C89.4976 12.9203 89.2649 12.6941 89.2649 12.406V2.9562C89.2649 2.6847 89.4976 2.44336 89.7755 2.44336H90.8565C91.1343 2.44336 91.3654 2.6847 91.3654 2.9562V11.4406H94.961C95.2389 11.4406 95.4705 11.6835 95.4705 11.955V12.4196C95.4705 12.6926 95.2389 12.9188 94.961 12.9188" fill="#0066F5"/>
<path d="M25.0352 12.9203H23.9878C23.6948 12.9203 23.4634 12.685 23.4634 12.3984V2.96671C23.4634 2.69521 23.6948 2.44482 23.9739 2.44482H25.0491C25.3283 2.44482 25.5581 2.69521 25.5581 2.96671V12.3984C25.5581 12.685 25.3283 12.9203 25.0337 12.9203" fill="#0066F5"/>
<path d="M34.9457 3.923H32.51V12.3984C32.51 12.685 32.2787 12.9203 31.9856 12.9203H30.9382C30.6452 12.9203 30.4138 12.685 30.4138 12.3984V3.923H27.9612C27.6835 3.923 27.4521 3.69826 27.4521 3.42676V2.96068C27.4521 2.68917 27.6835 2.44482 27.9612 2.44482H34.9442C35.2218 2.44482 35.4517 2.69068 35.4517 2.96068V3.42676C35.4517 3.69826 35.2218 3.923 34.9442 3.923" fill="#0066F5"/>
<path d="M103.016 3.923H100.414V12.3984C100.414 12.685 100.184 12.9203 99.8905 12.9203H98.842C98.5516 12.9203 98.3189 12.685 98.3189 12.3984V3.923H95.6999C95.4203 3.923 95.1904 3.69826 95.1904 3.42676V2.96068C95.1904 2.68917 95.4203 2.44482 95.6999 2.44482H103.016C103.293 2.44482 103.523 2.69068 103.523 2.96068V3.42676C103.523 3.69826 103.293 3.923 103.016 3.923Z" fill="#0066F5"/>
<path d="M43.8289 12.9203H37.7869C37.5092 12.9203 37.2778 12.7453 37.2778 12.4738V2.96068C37.2778 2.68917 37.5092 2.44482 37.7869 2.44482H43.6099C43.8891 2.44482 44.119 2.69068 44.119 2.96068V3.37698C44.119 3.64848 43.8891 3.87323 43.6099 3.87323H39.3741V6.77677H43.1811C43.4588 6.77677 43.6901 7.01813 43.6901 7.28962V7.70592C43.6901 7.97741 43.4588 8.20371 43.1811 8.20371H39.3741V11.4859L43.8289 11.4919C44.1066 11.4919 44.3364 11.7317 44.3364 12.0032V12.4753C44.3364 12.7468 44.1066 12.9218 43.8289 12.9218" fill="#0066F5"/>
<path d="M76.0945 12.9203H70.0526C69.7748 12.9203 69.5432 12.7453 69.5432 12.4738V2.96068C69.5432 2.68917 69.7748 2.44482 70.0526 2.44482H75.8754C76.1532 2.44482 76.3843 2.69068 76.3843 2.96068V3.37698C76.3843 3.64848 76.1532 3.87323 75.8754 3.87323H71.6397V6.7768H75.4453C75.7243 6.7768 75.9542 7.01811 75.9542 7.28965V7.70596C75.9542 7.97745 75.7243 8.20368 75.4453 8.20368H71.6397V11.4858L76.0945 11.4919C76.3723 11.4919 76.6022 11.7317 76.6022 12.0032V12.4753C76.6022 12.7468 76.3723 12.9218 76.0945 12.9218" fill="#0066F5"/>
<path d="M19.732 12.9203H18.151C17.6604 12.9203 17.429 12.6986 17.3056 12.4286C16.5205 10.7981 13.4802 4.12667 13.4802 4.12667V12.4135C13.4802 12.685 13.2488 12.9203 12.9712 12.9203H12.26C11.9808 12.9203 11.751 12.685 11.751 12.4135V2.94715C11.751 2.67565 11.9808 2.44336 12.26 2.44336H13.8072C14.2638 2.44336 14.5445 2.59872 14.7003 2.93357C15.5178 4.68325 18.5119 11.1872 18.5119 11.1872V2.94715C18.5119 2.67565 18.7433 2.44336 19.0209 2.44336H19.7336C20.0112 2.44336 20.2426 2.67565 20.2426 2.94715V12.412C20.2426 12.6835 20.0112 12.9188 19.7336 12.9188" fill="#0066F5"/>
<path d="M81.0039 9.18561L82.6006 3.9954L84.1032 9.18561H81.0039ZM87.2636 12.2551L84.1865 2.92749C84.0781 2.60923 83.8174 2.44482 83.4335 2.44482H82.0729C81.6782 2.44482 81.4591 2.61074 81.3496 2.92749L78.2816 12.3139C78.2491 12.4044 78.2166 12.4678 78.2166 12.5568C78.2166 12.7664 78.4037 12.9188 78.5868 12.9188H79.2811C79.6496 12.9188 79.9183 12.7514 80.0261 12.4346L80.6325 10.4752H84.5351L85.1672 12.4346C85.2567 12.7076 85.4621 12.9188 85.9327 12.9188H86.9396C87.1712 12.9188 87.3252 12.7664 87.3252 12.5402C87.3252 12.4346 87.2927 12.3607 87.2653 12.2536" fill="#0066F5"/>
<path d="M134.165 7.08305C135.499 7.08305 136.033 6.49175 136.033 5.36504C136.033 4.17194 135.416 3.61536 134.196 3.61536H132.419V12.3683C132.419 12.6398 132.19 12.8676 131.91 12.8676H130.813C130.537 12.8676 130.306 12.6398 130.306 12.3683V2.90493C130.306 2.63343 130.537 2.39209 130.813 2.39209H134.409C136.616 2.39209 137.99 3.37252 137.99 5.36504C137.99 6.93521 136.974 7.68942 135.799 7.99109L138.114 12.2325C138.162 12.323 138.207 12.415 138.207 12.5207C138.207 12.7001 138.085 12.8676 137.913 12.8676H136.57C136.414 12.8676 136.244 12.7454 136.169 12.5795L133.695 7.85384C133.631 7.73618 133.52 7.54763 133.52 7.36664C133.52 7.20821 133.601 7.08305 133.884 7.08305H134.162H134.165Z" fill="#0066F5"/>
<path d="M144.415 3.34834C142.195 3.34834 141.814 5.30014 141.814 7.63055C141.814 9.96094 142.221 11.9127 144.382 11.9127C146.544 11.9127 147.014 10.065 147.014 7.63055C147.014 5.19606 146.601 3.34834 144.415 3.34834ZM144.415 13.0878C142.348 13.0878 139.715 12.3924 139.715 7.63055C139.715 2.86869 142.329 2.17334 144.415 2.17334C146.501 2.17334 149.113 2.89735 149.113 7.63055C149.113 12.3637 146.556 13.0878 144.415 13.0878Z" fill="#0066F5"/>
<path d="M155.178 13.0878C152.308 13.0878 151.134 11.5025 151.134 9.58541V2.90342C151.134 2.63192 151.365 2.39209 151.643 2.39209H152.723C153.002 2.39209 153.233 2.63192 153.233 2.90342V9.70604C153.233 11.4406 154.086 11.9113 155.277 11.9113C156.846 11.9113 157.323 11.0078 157.323 9.70604V2.90342C157.323 2.63192 157.554 2.39209 157.831 2.39209H158.711C158.988 2.39209 159.222 2.63192 159.222 2.90342V9.58541C159.222 11.8042 157.799 13.0878 155.177 13.0878" fill="#0066F5"/>
<path d="M164.836 7.6291H165.367C166.451 7.6291 167.299 7.0906 167.299 5.66675C167.299 4.11014 166.477 3.60031 165.316 3.60031H163.656V12.3668C163.656 12.6383 163.454 12.8661 163.178 12.8661H162.112C161.834 12.8661 161.604 12.6383 161.604 12.3668V2.90346C161.604 2.63196 161.834 2.39062 162.112 2.39062H165.97C168.046 2.39062 169.258 3.62898 169.258 5.66524C169.258 7.50691 168.153 8.74529 165.967 8.74529C165.55 8.74529 165.14 8.70604 164.887 8.66532C164.444 8.5914 164.245 8.35766 164.245 8.11176C164.245 7.86592 164.443 7.62759 164.838 7.62759" fill="#0066F5"/>
<path d="M127.457 12.5265C126.892 12.7694 126.011 13.1268 124.16 13.1268C121.142 13.1268 118.436 11.8885 118.436 6.98332C118.436 3.13403 120.102 0.839844 124.16 0.839844C126.032 0.839844 127.066 1.32704 127.31 1.4281C127.682 1.58195 127.707 1.65586 127.707 1.8263C127.707 1.90775 127.66 2.15663 127.649 2.21847C127.59 2.51712 127.503 3.00583 127.455 3.26979C127.43 3.41459 127.409 3.61671 127.182 3.61671C126.996 3.61671 126.832 3.40554 126.732 3.30297C126.573 3.14308 125.675 2.23355 124.159 2.23355C121.28 2.23355 120.793 4.93048 120.793 6.98332C120.793 9.81452 121.734 11.7346 124.159 11.7346C125.086 11.7346 125.572 11.5883 125.723 11.5476V7.66512C125.723 7.42981 125.863 7.35438 126.11 7.35438H127.441C127.722 7.35438 127.819 7.46599 127.819 7.68321V11.9292C127.819 12.3319 127.794 12.3787 127.455 12.525" fill="#0066F5"/>
</g>
<defs>
<clipPath id="clip0_216_2947">
<rect width="170" height="14" fill="white"/>
</clipPath>
</defs>
</svg>
